<?xml version="1.0" encoding="UTF-8"?>
<svg id="Layer_1" data-name="Layer 1" xmlns="http://www.w3.org/2000/svg" viewBox="0 0 27.2 81.6">
  <defs>
    <style>
      .cls-1 {
        fill: #70cddd;
        stroke-width: 0px;
      }
    </style>
  </defs>
  <rect class="cls-1" x="13.4" y="30.96" width="3.8" height=".89"/>
  <rect class="cls-1" x="13.4" y="29.1" width="3.8" height=".89"/>
  <rect class="cls-1" x="13.4" y="27.24" width="3.8" height=".89"/>
  <rect class="cls-1" x="13.4" y="25.37" width="3.8" height=".89"/>
  <rect class="cls-1" x="13.4" y="23.51" width="3.8" height=".89"/>
  <rect class="cls-1" x="13.4" y="21.65" width="3.8" height=".89"/>
  <rect class="cls-1" x="13.4" y="19.75" width="3.8" height=".89"/>
  <rect class="cls-1" x="13.4" y="17.89" width="3.8" height=".89"/>
  <rect class="cls-1" x="13.4" y="56.73" width="3.8" height=".89"/>
  <rect class="cls-1" x="13.4" y="54.87" width="3.8" height=".89"/>
  <rect class="cls-1" x="13.4" y="60.44" width="3.8" height=".89"/>
  <rect class="cls-1" x="13.4" y="58.58" width="3.8" height=".89"/>
  <rect class="cls-1" x="13.4" y="53" width="3.8" height=".89"/>
  <rect class="cls-1" x="13.4" y="51.14" width="3.8" height=".89"/>
  <rect class="cls-1" x="13.4" y="49.28" width="3.8" height=".89"/>
  <rect class="cls-1" x="13.4" y="47.41" width="3.8" height=".89"/>
  <path class="cls-1" d="M15.3,32.97c-3.65,0-6.62,2.97-6.62,6.62,0,1.54.52,2.95,1.4,4.07l-4.8,4.8,1.43,1.43,4.85-4.85c1.06.74,2.35,1.17,3.74,1.17,3.66,0,6.63-2.97,6.63-6.63s-2.97-6.62-6.63-6.62ZM18.29,40.03h-2.54v2.54h-.9v-2.54h-2.53v-.9h2.53v-2.53h.9v2.53h2.54v.9Z"/>
  <polygon class="cls-1" points="15.3 13.7 9.93 16.81 20.68 16.81 15.3 13.7"/>
  <polygon class="cls-1" points="15.3 67 20.68 63.89 9.93 63.89 15.3 67"/>
  <polygon class="cls-1" points="19.33 6.94 19.33 8.14 15.92 8.14 15.92 11.56 14.7 11.56 14.7 8.14 11.28 8.14 11.28 6.94 14.7 6.94 14.7 3.51 15.92 3.51 15.92 6.94 19.33 6.94"/>
  <rect class="cls-1" x="11.3" y="70.52" width="8.01" height="1.2"/>
  <rect class="cls-1" x="13.4" y="62.17" width="3.8" height=".89"/>
</svg>