<?xml version="1.0" encoding="UTF-8"?>
<svg id="Layer_1" data-name="Layer 1" xmlns="http://www.w3.org/2000/svg" viewBox="0 0 27.2 27.2">
  <defs>
    <style>
      .cls-1 {
        stroke-width: 1.5px;
      }

      .cls-1, .cls-2 {
        fill: #fff;
        stroke: #fff;
        stroke-miterlimit: 10;
      }
    </style>
  </defs>
  <g>
    <g>
      <line class="cls-1" x1="13.51" y1="13.6" x2="8.61" y2="13.6"/>
      <path class="cls-2" d="M8.7,15.47l-3.38-1.69c-.09-.09-.18-.18-.09-.27l.09-.09,3.38-1.69c.09-.09.27,0,.36.09v3.47c0,.18-.18.27-.36.18.09,0,0,0,0,0Z"/>
    </g>
    <g>
      <line class="cls-1" x1="11.37" y1="13.6" x2="18.59" y2="13.6"/>
      <path class="cls-2" d="M18.5,11.73l3.38,1.69c.09.09.18.18.09.27l-.09.09-3.38,1.69c-.09.09-.27,0-.36-.09v-3.47c0-.18.18-.27.36-.18-.09,0,0,0,0,0Z"/>
    </g>
  </g>
  <g>
    <g>
      <line class="cls-1" x1="13.6" y1="13.51" x2="13.6" y2="8.61"/>
      <path class="cls-2" d="M11.73,8.7l1.69-3.38c.09-.09.18-.18.27-.09l.09.09,1.69,3.38c.09.09,0,.27-.09.36h-3.47c-.18,0-.27-.18-.18-.36,0,.09,0,0,0,0Z"/>
    </g>
    <g>
      <line class="cls-1" x1="13.6" y1="13.69" x2="13.6" y2="18.58"/>
      <path class="cls-2" d="M15.47,18.5l-1.69,3.38c-.09.09-.18.09-.27.09l-.09-.09-1.69-3.38c-.09-.09,0-.27.09-.36h3.47c.18,0,.27.18.18.36,0-.09,0,0,0,0Z"/>
    </g>
  </g>
</svg>