<?xml version="1.0" encoding="UTF-8"?>
<svg id="Layer_1" data-name="Layer 1" xmlns="http://www.w3.org/2000/svg" viewBox="0 0 27.2 27.2">
  <defs>
    <style>
      .cls-1 {
        fill: #fff;
        stroke-width: 0px;
      }
    </style>
  </defs>
  <path class="cls-1" d="M19.95,13.89v3.97c0,.12-.02.24-.05.35-.03.12-.07.24-.14.36l-1,1.74v.68c0,.65-.54,1.18-1.19,1.18h-5.34c-.65,0-1.19-.53-1.19-1.18v-.93l-3.45-3.45c-.46-.46-.46-1.22,0-1.69.46-.46,1.22-.46,1.68,0l1.16,1.16V6.24c0-.65.54-1.19,1.19-1.19s1.19.54,1.19,1.19v4.86c0-.65.54-1.19,1.19-1.19s1.19.54,1.19,1.19v1.41c0-.66.54-1.19,1.19-1.19s1.19.53,1.19,1.19v1.37c0-.65.54-1.19,1.19-1.19s1.19.54,1.19,1.19Z"/>
</svg>