<?xml version="1.0" encoding="UTF-8"?>
<svg id="Layer_1" data-name="Layer 1" xmlns="http://www.w3.org/2000/svg" viewBox="0 0 27.2 27.2">
  <defs>
    <style>
      .cls-1 {
        stroke-width: .25px;
      }

      .cls-1, .cls-2 {
        fill: none;
      }

      .cls-1, .cls-2, .cls-3 {
        stroke: #fff;
        stroke-miterlimit: 10;
      }

      .cls-2 {
        stroke-width: 1.25px;
      }

      .cls-3 {
        fill: #fff;
      }
    </style>
  </defs>
  <path class="cls-3" d="M12.15,4.37l2.9,1.99c.09.09.18.27.09.36,0,0,0,.09-.09.09l-2.9,1.9c-.09.09-.27.09-.27,0q-.09-.09-.09-.18v-3.98c0-.18.18-.27.36-.18Z"/>
  <path class="cls-2" d="M12.51,6.45c-.63.09-1.27.27-1.9.54"/>
  <path class="cls-2" d="M17.31,7.45c1.9,1.09,3.17,2.99,3.44,5.16.09.72.09,1.45,0,2.17-.36,2.53-2.08,4.71-4.53,5.61"/>
  <path class="cls-2" d="M9.89,19.85c-1.81-1.09-3.08-2.99-3.44-5.16-.09-.72-.09-1.45,0-2.17.36-2.44,1.9-4.53,4.16-5.52"/>
  <path class="cls-2" d="M16.22,20.39c-.54.18-1,.36-1.54.45"/>
  <path class="cls-1" d="M6.45,12.52c-.09.72-.09,1.45,0,2.17"/>
  <path class="cls-3" d="M15.05,22.83l-2.9-1.9c-.09-.09-.18-.27-.09-.36l.09-.09,2.9-1.99c.09-.09.18,0,.27.09v4.07c0,.09,0,.27-.09.27,0,0-.09,0-.18-.09Z"/>
</svg>